<?xml version="1.0" encoding="utf-8"?>
<svg contentScriptType="text/ecmascript" xmlns:xlink="http://www.w3.org/1999/xlink" zoomAndPan="magnify" contentStyleType="text/css" viewBox="297.0 61.50000017742299 761.0 784.499999822577" xmlns:cacoo="http://cacoo.com/" preserveAspectRatio="xMidYMin meet" xmlns="http://www.w3.org/2000/svg" version="1.1"><defs><linearGradient x1="0%" xmlns:xlink="http://www.w3.org/1999/xlink" y1="0%" x2="0%" y2="100%" xlink:type="simple" xlink:actuate="onLoad" id="id1" xlink:show="other"><stop stop-opacity="1.0" stop-color="#feea8a" offset="0%"/><stop stop-opacity="1.0" stop-color="#fbb753" offset="67%"/></linearGradient><linearGradient x1="0%" xmlns:xlink="http://www.w3.org/1999/xlink" y1="0%" x2="0%" y2="100%" xlink:type="simple" xlink:actuate="onLoad" id="id2" xlink:show="other"><stop stop-opacity="1.0" stop-color="#ffffff" offset="0%"/><stop stop-opacity="1.0" stop-color="#fff290" offset="67%"/></linearGradient><linearGradient x1="0%" xmlns:xlink="http://www.w3.org/1999/xlink" y1="0%" x2="0%" y2="100%" xlink:type="simple" xlink:actuate="onLoad" id="id3" xlink:show="other"><stop stop-opacity="1.0" stop-color="#feea8a" offset="0%"/><stop stop-opacity="1.0" stop-color="#fbb753" offset="67%"/></linearGradient><linearGradient x1="0%" xmlns:xlink="http://www.w3.org/1999/xlink" y1="0%" x2="0%" y2="100%" xlink:type="simple" xlink:actuate="onLoad" id="id4" xlink:show="other"><stop stop-opacity="1.0" stop-color="#ffffff" offset="0%"/><stop stop-opacity="1.0" stop-color="#fff290" offset="67%"/></linearGradient><marker refX="14.0" refY="7.0" markerUnits="userSpaceOnUse" orient="auto" id="id6" markerHeight="14.0" viewBox="0 0 14.0 14.0" preserveAspectRatio="xMidYMid meet" markerWidth="14.0" overflow="visible"><path fill="none" d="M0 0 L14.0 7.0 L0 14.0" stroke-width="1.0" stroke-linejoin="round" stroke-linecap="round" stroke="#000000"/></marker><marker refX="14.0" refY="7.0" markerUnits="userSpaceOnUse" orient="auto" id="id8" markerHeight="14.0" viewBox="0 0 14.0 14.0" preserveAspectRatio="xMidYMid meet" markerWidth="14.0" overflow="visible"><path fill="none" d="M0 0 L14.0 7.0 L0 14.0" stroke-width="1.0" stroke-linejoin="round" stroke-linecap="round" stroke="#000000"/></marker><marker refX="14.0" refY="7.0" markerUnits="userSpaceOnUse" orient="auto" id="id9" markerHeight="14.0" viewBox="0 0 14.0 14.0" preserveAspectRatio="xMidYMid meet" markerWidth="14.0" overflow="visible"><path fill="none" d="M0 0 L14.0 7.0 L0 14.0" stroke-width="1.0" stroke-linejoin="round" stroke-linecap="round" stroke="#000000"/></marker><marker refX="14.0" refY="7.0" markerUnits="userSpaceOnUse" orient="auto" id="id11" markerHeight="14.0" viewBox="0 0 14.0 14.0" preserveAspectRatio="xMidYMid meet" markerWidth="14.0" overflow="visible"><path fill="none" d="M0 0 L14.0 7.0 L0 14.0" stroke-width="1.0" stroke-linejoin="round" stroke-linecap="round" stroke="#000000"/></marker><marker refX="14.0" refY="7.0" markerUnits="userSpaceOnUse" orient="auto" id="id12" markerHeight="14.0" viewBox="0 0 14.0 14.0" preserveAspectRatio="xMidYMid meet" markerWidth="14.0" overflow="visible"><path fill="none" d="M0 0 L14.0 7.0 L0 14.0" stroke-width="1.0" stroke-linejoin="round" stroke-linecap="round" stroke="#000000"/></marker><linearGradient x1="0%" xmlns:xlink="http://www.w3.org/1999/xlink" y1="0%" x2="0%" y2="100%" xlink:type="simple" xlink:actuate="onLoad" id="id14" xlink:show="other"><stop stop-opacity="1.0" stop-color="#feea8a" offset="0%"/><stop stop-opacity="1.0" stop-color="#fbb753" offset="67%"/></linearGradient><linearGradient x1="0%" xmlns:xlink="http://www.w3.org/1999/xlink" y1="0%" x2="0%" y2="100%" xlink:type="simple" xlink:actuate="onLoad" id="id15" xlink:show="other"><stop stop-opacity="1.0" stop-color="#ffffff" offset="0%"/><stop stop-opacity="1.0" stop-color="#fff290" offset="67%"/></linearGradient><marker refX="14.0" refY="7.0" markerUnits="userSpaceOnUse" orient="auto" id="id17" markerHeight="14.0" viewBox="0 0 14.0 14.0" preserveAspectRatio="xMidYMid meet" markerWidth="14.0" overflow="visible"><path fill="none" d="M0 0 L14.0 7.0 L0 14.0" stroke-width="1.0" stroke-linejoin="round" stroke-linecap="round" stroke="#000000"/></marker><marker refX="14.0" refY="7.0" markerUnits="userSpaceOnUse" orient="auto" id="id19" markerHeight="14.0" viewBox="0 0 14.0 14.0" preserveAspectRatio="xMidYMid meet" markerWidth="14.0" overflow="visible"><path fill="none" d="M0 0 L14.0 7.0 L0 14.0" stroke-width="1.0" stroke-linejoin="round" stroke-linecap="round" stroke="#000000"/></marker><marker refX="14.0" refY="7.0" markerUnits="userSpaceOnUse" orient="auto" id="id20" markerHeight="14.0" viewBox="0 0 14.0 14.0" preserveAspectRatio="xMidYMid meet" markerWidth="14.0" overflow="visible"><path fill="none" d="M0 0 L14.0 7.0 L0 14.0" stroke-width="1.0" stroke-linejoin="round" stroke-linecap="round" stroke="#000000"/></marker><marker refX="14.0" refY="7.0" markerUnits="userSpaceOnUse" orient="auto" id="id23" markerHeight="14.0" viewBox="0 0 14.0 14.0" preserveAspectRatio="xMidYMid meet" markerWidth="14.0" overflow="visible"><path fill="none" d="M0 0 L14.0 7.0 L0 14.0" stroke-width="1.0" stroke-linejoin="round" stroke-linecap="round" stroke="#000000"/></marker><marker refX="14.0" refY="7.0" markerUnits="userSpaceOnUse" orient="auto" id="id24" markerHeight="14.0" viewBox="0 0 14.0 14.0" preserveAspectRatio="xMidYMid meet" markerWidth="14.0" overflow="visible"><path fill="none" d="M0 0 L14.0 7.0 L0 14.0" stroke-width="1.0" stroke-linejoin="round" stroke-linecap="round" stroke="#000000"/></marker><marker refX="14.0" refY="7.0" markerUnits="userSpaceOnUse" orient="auto" id="id25" markerHeight="14.0" viewBox="0 0 14.0 14.0" preserveAspectRatio="xMidYMid meet" markerWidth="14.0" overflow="visible"><path fill="none" d="M0 0 L14.0 7.0 L0 14.0" stroke-width="1.0" stroke-linejoin="round" stroke-linecap="round" stroke="#000000"/></marker><marker refX="14.0" refY="7.0" markerUnits="userSpaceOnUse" orient="auto" id="id26" markerHeight="14.0" viewBox="0 0 14.0 14.0" preserveAspectRatio="xMidYMid meet" markerWidth="14.0" overflow="visible"><path fill="none" d="M0 0 L14.0 7.0 L0 14.0" stroke-width="1.0" stroke-linejoin="round" stroke-linecap="round" stroke="#000000"/></marker><marker refX="14.0" refY="7.0" markerUnits="userSpaceOnUse" orient="auto" id="id27" markerHeight="14.0" viewBox="0 0 14.0 14.0" preserveAspectRatio="xMidYMid meet" markerWidth="14.0" overflow="visible"><path fill="none" d="M0 0 L14.0 7.0 L0 14.0" stroke-width="1.0" stroke-linejoin="round" stroke-linecap="round" stroke="#000000"/></marker></defs><g><g transform="translate(313.0 213.0)"><path fill="#ffffff" fill-opacity="1.0" d="M205.0 91.0 L0.0 91.0 L0.0 0.0 L205.0 0.0 L205.0 91.0z" stroke-width="2.0" stroke-linejoin="round" stroke="#000000"/><g transform="translate(1.0 1.0)"><clipPath id="id0"><path d="M0 0 L203.0 0 L203.0 89.0 L0 89.0z"/></clipPath><text font-size="12" clip-path="url(#id0)" text-decoration="none" fill="#000000" font-family="Arial,Arial" font-style="normal" font-weight="normal"><tspan x="49.0" xml:space="preserve" y="48.75" textLength="105.0">register_all_songs()</tspan></text></g></g><g transform="translate(351.0 76.5)"><path fill="url(#id1)" d="M115.30456228423004 10.388968976598903 L47.30326386914424 10.388968976598903 L44.28064640552975 1.5417320077484578 Q44.28064640552975 1.7742299291054097E-7 42.77042477447577 1.7742299291054097E-7 L6.600996545037571 1.7742299291054097E-7 Q5.090772527135609 1.7742299291054097E-7 5.090772527135609 1.5417320077484578 L2.0681552805073 11.859816584840434 L2.0681552805073 77.64037467872694 L2.0681552805073 88.02933904763896 Q2.0681552805073 89.5710686628325 3.578378777642432 89.5710686628325 L115.30456228423004 89.5710686628325 Q116.81261622336281 89.5710686628325 116.81261622336281 88.02933904763896 L116.81261622336281 11.932915938864484 Q116.81261622336281 10.391184108539022 115.30456228423004 10.391184108539022 L115.30456228423004 10.388968976598903z" stroke-width="1.0" stroke-linejoin="round" stroke="#000000"/><path fill="url(#id2)" d="M119.27947206916865 12.298086754981929 L1.5102238009157805 12.298086754981929 Q0.0 12.298086754981929 0.0 13.839818806820585 L0.0 89.9384612562858 Q0.0 91.48019308661128 1.5102238009157805 91.48019308661128 L119.27729569780037 91.48019308661128 Q120.7875194987162 91.48019308661128 120.7875194987162 89.9384612562858 L120.7875194987162 13.839818806820585 Q120.7875194987162 12.298086754981929 119.27729569780037 12.298086754981929 L119.27947206916865 12.298086754981929z" stroke-width="1.0" stroke-linejoin="round" stroke="#000000"/></g><g transform="translate(351.0 76.5)"><path fill="url(#id3)" d="M115.30456228423004 10.388968976598903 L47.30326386914424 10.388968976598903 L44.28064640552975 1.5417320077484578 Q44.28064640552975 1.7742299291054097E-7 42.77042477447577 1.7742299291054097E-7 L6.600996545037571 1.7742299291054097E-7 Q5.090772527135609 1.7742299291054097E-7 5.090772527135609 1.5417320077484578 L2.0681552805073 11.859816584840434 L2.0681552805073 77.64037467872694 L2.0681552805073 88.02933904763896 Q2.0681552805073 89.5710686628325 3.578378777642432 89.5710686628325 L115.30456228423004 89.5710686628325 Q116.81261622336281 89.5710686628325 116.81261622336281 88.02933904763896 L116.81261622336281 11.932915938864484 Q116.81261622336281 10.391184108539022 115.30456228423004 10.391184108539022 L115.30456228423004 10.388968976598903z" stroke-width="1.0" stroke-linejoin="round" stroke="#000000"/><path fill="url(#id4)" d="M119.27947206916865 12.298086754981929 L1.5102238009157805 12.298086754981929 Q0.0 12.298086754981929 0.0 13.839818806820585 L0.0 89.9384612562858 Q0.0 91.48019308661128 1.5102238009157805 91.48019308661128 L119.27729569780037 91.48019308661128 Q120.7875194987162 91.48019308661128 120.7875194987162 89.9384612562858 L120.7875194987162 13.839818806820585 Q120.7875194987162 12.298086754981929 119.27729569780037 12.298086754981929 L119.27947206916865 12.298086754981929z" stroke-width="1.0" stroke-linejoin="round" stroke="#000000"/></g><g transform="translate(384.0 122.0)"><clipPath id="id5"><path d="M0 0 L150.0 0 L150.0 40.0 L0 40.0z"/></clipPath><text font-size="12" clip-path="url(#id5)" text-decoration="none" fill="#000000" font-family="Arial,Arial" font-style="normal" font-weight="normal"><tspan x="2.0" xml:space="preserve" y="13.0" textLength="64.0">Song library</tspan></text></g><path fill="none" marker-end="url(#id6)" d="M405.0 172.0 L405.0 210.0" stroke-width="1.0" stroke-linejoin="round" stroke="#000000"/><g transform="translate(640.0 213.0)"><path fill-opacity="1.0" fill="#ffffff" stroke-linejoin="round" stroke-dasharray="2.0 2.0" d="M205.0 91.0 L0.0 91.0 L0.0 0.0 L205.0 0.0 L205.0 91.0z" stroke="#000000" stroke-width="2.0"/><g transform="translate(1.0 1.0)"><clipPath id="id7"><path d="M0 0 L203.0 0 L203.0 89.0 L0 89.0z"/></clipPath><text font-size="12" clip-path="url(#id7)" text-decoration="none" fill="#000000" font-family="Arial,Arial" font-style="normal" font-weight="normal"><tspan x="61.0" xml:space="preserve" y="48.75" textLength="80.5">register_song()</tspan></text></g></g><path fill="none" marker-end="url(#id8)" d="M518.0 235.75 L640.0 235.75" stroke-width="1.0" stroke-linejoin="round" stroke="#000000"/><path fill="none" marker-end="url(#id9)" d="M640.0 281.25 L518.0 281.25" stroke-width="1.0" stroke-linejoin="round" stroke="#000000"/><g transform="translate(959.0 213.0)"><path fill="#ffffff" fill-opacity="1.0" d="M0.0 6.0 L84.0 6.0 L84.0 85.0 Q84.0 87.48528137423857 71.69848480983498 89.24264068711929 Q59.39696961967 91.0 41.99999999999999 91.0 Q24.603030380330004 91.0 12.301515190164995 89.24264068711929 Q0.0 87.48528137423857 0.0 85.0 L0.0 6.0z" stroke-width="1.0" stroke-linejoin="round" stroke="#000000"/><path fill="#ffffff" fill-opacity="1.0" d="M84.0 6.0 Q84.0 8.485281374238571 71.69848480983498 10.242640687119284 Q59.39696961967 11.999999999999998 42.0 12.0 Q24.603030380330008 12.0 12.301515190165004 10.242640687119286 Q0.0 8.485281374238571 0.0 6.000000000000001 Q0.0 3.5147186257614313 12.301515190164995 1.7573593128807152 Q24.603030380330004 8.881784197001252E-16 41.99999999999999 0.0 Q59.39696961967 -8.881784197001252E-16 71.69848480983498 1.7573593128807143 Q84.0 3.5147186257614287 84.0 6.0z" stroke-width="1.0" stroke-linejoin="round" stroke="#000000"/><g transform="translate(0.0 12.0)"><clipPath id="id10"><path d="M0 0 L84.0 0 L84.0 79.0 L0 79.0z"/></clipPath><text font-size="12" clip-path="url(#id10)" text-decoration="none" fill="#000000" font-family="Arial,Arial" font-style="normal" font-weight="normal"><tspan x="16.5" xml:space="preserve" y="43.75" textLength="51.0">Database</tspan></text></g></g><path fill="none" marker-end="url(#id11)" d="M845.0 235.75 L959.0 235.75" stroke-width="1.0" stroke-linejoin="round" stroke="#000000"/><path fill="none" marker-end="url(#id12)" d="M959.0 281.25000000000006 L845.0 281.25" stroke-width="1.0" stroke-linejoin="round" stroke="#000000"/><g transform="translate(312.0 536.0)"><path fill="#ffffff" fill-opacity="1.0" d="M205.0 226.0 L0.0 226.0 L0.0 0.0 L205.0 0.0 L205.0 226.0z" stroke-width="2.0" stroke-linejoin="round" stroke="#000000"/><g transform="translate(1.0 1.0)"><clipPath id="id13"><path d="M0 0 L203.0 0 L203.0 224.0 L0 224.0z"/></clipPath><text font-size="12" clip-path="url(#id13)" text-decoration="none" fill="#000000" font-family="Arial,Arial" font-style="normal" font-weight="normal"><tspan x="73.0" xml:space="preserve" y="116.25" textLength="57.0">run_tests()</tspan></text></g></g><g transform="translate(716.5 404.0)"><path fill="url(#id14)" d="M115.30456228423004 10.388968976598903 L47.30326386914424 10.388968976598903 L44.28064640552975 1.5417320077484578 Q44.28064640552975 1.7742299291054097E-7 42.77042477447577 1.7742299291054097E-7 L6.600996545037571 1.7742299291054097E-7 Q5.090772527135609 1.7742299291054097E-7 5.090772527135609 1.5417320077484578 L2.0681552805073 11.859816584840434 L2.0681552805073 77.64037467872694 L2.0681552805073 88.02933904763896 Q2.0681552805073 89.5710686628325 3.578378777642432 89.5710686628325 L115.30456228423004 89.5710686628325 Q116.81261622336281 89.5710686628325 116.81261622336281 88.02933904763896 L116.81261622336281 11.932915938864484 Q116.81261622336281 10.391184108539022 115.30456228423004 10.391184108539022 L115.30456228423004 10.388968976598903z" stroke-width="1.0" stroke-linejoin="round" stroke="#000000"/><path fill="url(#id15)" d="M119.27947206916865 12.298086754981929 L1.5102238009157805 12.298086754981929 Q0.0 12.298086754981929 0.0 13.839818806820585 L0.0 89.9384612562858 Q0.0 91.48019308661128 1.5102238009157805 91.48019308661128 L119.27729569780037 91.48019308661128 Q120.7875194987162 91.48019308661128 120.7875194987162 89.9384612562858 L120.7875194987162 13.839818806820585 Q120.7875194987162 12.298086754981929 119.27729569780037 12.298086754981929 L119.27947206916865 12.298086754981929z" stroke-width="1.0" stroke-linejoin="round" stroke="#000000"/></g><g transform="translate(723.5 441.5)"><clipPath id="id16"><path d="M0 0 L150.0 0 L150.0 40.0 L0 40.0z"/></clipPath><text font-size="12" clip-path="url(#id16)" text-decoration="none" fill="#000000" font-family="Arial,Arial" font-style="normal" font-weight="normal"><tspan x="2.0" xml:space="preserve" y="13.0" textLength="64.0">Song library</tspan></text></g><path fill="none" marker-end="url(#id17)" d="M752.0 498.0 L752.0 536.0" stroke-width="1.0" stroke-linejoin="round" stroke="#000000"/><g transform="translate(655.0 536.0)"><path fill="#ffffff" fill-opacity="1.0" d="M205.0 91.0 L0.0 91.0 L0.0 0.0 L205.0 0.0 L205.0 91.0z" stroke-width="2.0" stroke-linejoin="round" stroke="#000000"/><g transform="translate(1.0 1.0)"><clipPath id="id18"><path d="M0 0 L203.0 0 L203.0 89.0 L0 89.0z"/></clipPath><text font-size="12" clip-path="url(#id18)" text-decoration="none" fill="#000000" font-family="Arial,Arial" font-style="normal" font-weight="normal"><tspan x="61.0" xml:space="preserve" y="48.75" textLength="81.0">get_test_clips()</tspan></text></g></g><path fill="none" marker-end="url(#id19)" d="M518.0 560.8287172011662 L655.0 558.75" stroke-width="1.0" stroke-linejoin="round" stroke="#000000"/><path fill="none" marker-end="url(#id20)" d="M655.0 604.25 L518.0 606.0" stroke-width="1.0" stroke-linejoin="round" stroke="#000000"/><g transform="translate(655.0 671.0)"><path fill-opacity="1.0" fill="#ffffff" stroke-linejoin="round" stroke-dasharray="2.0 2.0" d="M205.0 91.0 L0.0 91.0 L0.0 0.0 L205.0 0.0 L205.0 91.0z" stroke="#000000" stroke-width="2.0"/><g transform="translate(1.0 1.0)"><clipPath id="id21"><path d="M0 0 L203.0 0 L203.0 89.0 L0 89.0z"/></clipPath><text font-size="12" clip-path="url(#id21)" text-decoration="none" fill="#000000" font-family="Arial,Arial" font-style="normal" font-weight="normal"><tspan x="69.0" xml:space="preserve" y="48.75" textLength="65.0">match_clip()</tspan></text></g></g><g transform="translate(944.0 671.0)"><path fill="#ffffff" fill-opacity="1.0" d="M0.0 6.0 L84.0 6.0 L84.0 85.0 Q84.0 87.48528137423857 71.69848480983498 89.24264068711929 Q59.39696961967 91.0 41.99999999999999 91.0 Q24.603030380330004 91.0 12.301515190164995 89.24264068711929 Q0.0 87.48528137423857 0.0 85.0 L0.0 6.0z" stroke-width="1.0" stroke-linejoin="round" stroke="#000000"/><path fill="#ffffff" fill-opacity="1.0" d="M84.0 6.0 Q84.0 8.485281374238571 71.69848480983498 10.242640687119284 Q59.39696961967 11.999999999999998 42.0 12.0 Q24.603030380330008 12.0 12.301515190165004 10.242640687119286 Q0.0 8.485281374238571 0.0 6.000000000000001 Q0.0 3.5147186257614313 12.301515190164995 1.7573593128807152 Q24.603030380330004 8.881784197001252E-16 41.99999999999999 0.0 Q59.39696961967 -8.881784197001252E-16 71.69848480983498 1.7573593128807143 Q84.0 3.5147186257614287 84.0 6.0z" stroke-width="1.0" stroke-linejoin="round" stroke="#000000"/><g transform="translate(0.0 12.0)"><clipPath id="id22"><path d="M0 0 L84.0 0 L84.0 79.0 L0 79.0z"/></clipPath><text font-size="12" clip-path="url(#id22)" text-decoration="none" fill="#000000" font-family="Arial,Arial" font-style="normal" font-weight="normal"><tspan x="16.5" xml:space="preserve" y="43.75" textLength="51.0">Database</tspan></text></g></g><path fill="none" marker-end="url(#id23)" d="M518.0 692.5 L655.0 693.75" stroke-width="1.0" stroke-linejoin="round" stroke="#000000"/><path fill="none" marker-end="url(#id24)" d="M655.0 739.25 L519.0 741.0" stroke-width="1.0" stroke-linejoin="round" stroke="#000000"/><path fill="none" marker-end="url(#id25)" d="M860.0 693.75 L944.0 693.75" stroke-width="1.0" stroke-linejoin="round" stroke="#000000"/><path fill="none" marker-end="url(#id26)" d="M944.0 739.25 L860.0 739.25" stroke-width="1.0" stroke-linejoin="round" stroke="#000000"/><path fill="none" marker-end="url(#id27)" d="M414.5 762.0 L415.0 790.0" stroke-width="1.0" stroke-linejoin="round" stroke="#000000"/><g transform="translate(380.0 791.0)"><clipPath id="id28"><path d="M0 0 L150.0 0 L150.0 40.0 L0 40.0z"/></clipPath><text font-size="12" clip-path="url(#id28)" text-decoration="none" fill="#000000" font-family="Arial,Arial" font-style="normal" font-weight="normal"><tspan x="2.0" xml:space="preserve" y="13.0" textLength="62.0">Test results</tspan></text></g></g></svg>